<svg width="762" height="762" viewBox="0 0 762 762" fill="none" xmlns="http://www.w3.org/2000/svg">
<path d="M398.371 607H309.746C309.746 607 160.257 606.642 110.165 606.515H104.583C100.665 606.515 96.9064 603.152 101.093 597.569C105.28 591.986 314.631 321.585 314.631 321.585L404.652 205.957C525.378 90.1168 616.794 212.025 616.794 212.025V319.491C624.47 600.719 420.702 607 398.371 607Z" fill="#0BCE96"/>
<circle cx="535.147" cy="262.482" r="27.2156" fill="#123EDB"/>
<path d="M688.671 259.101L616.794 318.03V212.025L688.671 259.101Z" fill="#1654F3"/>
<path d="M99 262.071L297.883 442.113L196.697 567.723C196.697 567.723 99 505.616 99 409.314V262.071Z" fill="#0ACC90"/>
<path d="M316.725 606.994V319.837C316.725 319.837 420.005 308.33 459.083 349.502C498.162 390.675 507.932 467.437 459.083 532.335C410.235 597.234 316.725 606.994 316.725 606.994Z" fill="#2F72FE"/>
<path d="M316.725 606.99H103.628C102.23 606.99 95.9423 604.901 100.833 597.244C105.724 589.586 316.725 319.481 316.725 319.481V606.99Z" fill="#1239EC"/>
</svg>
